<svg xmlns="http://www.w3.org/2000/svg" enable-background="new 0 0 110 110" version="1.1" xml:space="preserve" width="172.12121373256258" height="148.42424228412506" style=""><rect id="backgroundrect" width="100%" height="100%" x="0" y="0" fill="none" stroke="none" class="selected" style=""/><g class="currentLayer" style=""><title>Layer 1</title><path d="m142.444184152179,26.985091059004716 h0.1300926585028782 l-5.760968922060288,4.983700412286349 h-0.1300926585028782 l-24.917598306976632,21.555722073094266 c0.01941681470192215,0.020156523406618252 0.036891947933652136,0.04199275709712137 0.05825044410576645,0.06382899078762438 l-4.1066563094565245,3.5492278298486877 c-0.01941681470192215,-0.020156523406618252 -0.036891947933652136,-0.04367246738100625 -0.056308762635574224,-0.06382899078762438 l-45.099435508154464,39.01631047407728 c0.023300177642306602,0.016797102838848527 0.050483718224997656,0.031914495393812185 0.07378389586730408,0.04871159823266079 l-4.195973657085367,3.6298539234751592 c-0.023300177642306602,-0.016797102838848527 -0.050483718224997656,-0.031914495393812185 -0.07378389586730408,-0.04871159823266079 l-20.721624649891268,17.92418843933522 h0.1300926585028782 l-5.85222795115932,5.062646795628936 h-0.1300926585028782 l-25.44185230392853,22.009243849743175 c-0.5475541745942034,0.4736783000555279 -1.4349026064720434,0.4736783000555279 -1.9805150995960537,0 l-2.0601240398739353,-1.7821726112018261 c-0.5475541745942034,-0.4736783000555279 -0.5475541745942034,-1.2413058997909039 0,-1.7133044895625478 l21.40121316445854,-18.513766748978806 h-0.3203774425817153 c-5.623109537676641,0 -10.18217762968795,-3.9439597465616254 -10.18217762968795,-8.808400728692149 v-78.10652820064549 c0,-4.864440982130523 4.5590680920113105,-8.808400728692149 10.18217762968795,-8.808400728692149 h21.855566628483516 v-1.2698609746169467 c0,-4.864440982130523 4.557126410541118,-8.808400728692149 10.18217762968795,-8.808400728692149 h55.28549650078279 c5.623109537676641,0 10.18217762968795,3.9439597465616254 10.18217762968795,8.808400728692149 v1.2698609746169467 h13.467502677253169 l29.288323296379293,-25.33674992211907 c0.5475541745942034,-0.4736783000555279 1.4349026064720434,-0.4736783000555279 1.9805150995960537,0 l2.0601240398739353,1.7804929009179404 c0.5475541745942034,0.4736783000555279 0.5475541745942034,1.2413058997909039 0,1.7149841998464308 l-25.247684156909305,21.84295253163858 zm-83.92529818611789,65.60948368854221 l45.10331887109484,-39.01799018436116 c-5.562917412100683,-4.029624971039753 -12.723838674169553,-6.4635251723889 -20.54687331757397,-6.4635251723889 c-17.688718193451034,0 -32.028035850820515,12.404660446489611 -32.028035850820515,27.706821132680588 c-0.0019416814701922142,6.769232444055943 2.8115547688383202,12.964003971023265 7.471590297299624,17.774694224069474 zm56.62525671521542,-60.62578327625586 v-6.372820817059117 c0,-2.047566836055632 -1.9183812925499035,-3.7054408862499786 -4.283349323244014,-3.7054408862499786 h-55.5825737657222 c-2.364968030694112,0 -4.283349323244014,1.6578740501943474 -4.283349323244014,3.7054408862499786 v6.372820817059117 h-27.754394934927454 c-2.366909712164304,0 -4.283349323244014,1.6578740501943474 -4.283349323244014,3.7054408862499786 v78.26442096733065 c0,2.045887125771747 1.9164396110797117,3.7054408862499786 4.283349323244014,3.7054408862499786 h6.322114866945836 l24.762263789361253,-21.421345250383478 c-5.706601840894907,-5.7378903297506465 -9.178328309598578,-13.187405438779951 -9.178328309598578,-21.3524771287442 c0,-18.105597149994793 16.96641268653953,-32.7829056105806 37.895797253741364,-32.7829056105806 c9.438513626604333,0 18.049870946906783,3.0033219875861104 24.682654849083374,7.939990511923682 l20.87501748603645,-18.058565262046013 h-13.455852588432016 zm0.0815506217480731,25.66429342747661 c3.60181912720655,5.008896066544621 5.712426885305482,10.902999452696555 5.712426885305482,17.237186933226322 c0,18.105597149994793 -16.96641268653953,32.78122590029672 -37.895797253741364,32.78122590029672 c-7.322080824094823,0 -14.133499421529097,-1.824165368298947 -19.92553524711246,-4.940027944905342 l4.314416226767092,-3.732316250792135 c4.627026943468036,2.250811780405698 9.956942579145654,3.547548119564802 15.644127605338637,3.547548119564802 c17.688718193451034,0 32.028035850820515,-12.404660446489611 32.028035850820515,-27.706821132680588 c0,-4.9198714214987245 -1.4989780949883862,-9.530676150762632 -4.100831265045948,-13.533425757260233 l4.223157197668057,-3.6533698674495456 zm-69.37045388555708,60.011009312354 h97.04329819873647 c2.364968030694112,0 4.283349323244014,-1.6595537604782318 4.283349323244014,-3.7054408862499786 v-78.26442096733065 c0,-1.5369349097546379 -1.0815165788970613,-2.855507482604245 -2.6232116662296763,-3.4165307174217823 l4.143548257390176,-3.5845017458102677 c2.5513694518325645,1.6007639005422618 4.228982242078633,4.182478606873274 4.228982242078633,7.118612183103992 v78.10652820064549 c0,4.864440982130523 -4.5590680920113105,8.808400728692149 -10.18023594821776,8.808400728692149 h-102.74795835816117 l5.85222795115932,-5.062646795628936 z" clip-rule="evenodd" fill-rule="evenodd" id="svg_1" class="" fill="#919191" fill-opacity="1"/></g></svg>