<?xml version="1.0" encoding="UTF-8"?>
<svg width="512px" height="512px" enable-background="new 0 0 512.005 512.005" version="1.1" viewBox="0 0 512.005 512.005" xml:space="preserve" xmlns="http://www.w3.org/2000/svg">
    <path d="m394.67 384c-29.397 0-53.333 23.936-53.333 53.333s23.936 53.333 53.333 53.333 53.333-23.935 53.333-53.332-23.936-53.334-53.333-53.334zm0 85.334c-17.643 0-32-14.357-32-32s14.357-32 32-32 32 14.357 32 32c0 17.642-14.358 32-32 32z" fill="#fff"/>
    <path d="m181.33 384c-29.397 0-53.333 23.936-53.333 53.333s23.936 53.333 53.333 53.333 53.333-23.936 53.333-53.333-23.935-53.333-53.333-53.333zm0 85.334c-17.643 0-32-14.357-32-32s14.357-32 32-32 32 14.357 32 32c0 17.642-14.357 32-32 32z" fill="#fff"/>
    <path d="m458.67 341.34h-267.54c-25.323 0-47.317-18.027-52.288-42.88l-53.717-268.54c-1.003-4.992-5.376-8.576-10.453-8.576h-64c-5.888 0-10.667 4.778-10.667 10.666s4.779 10.667 10.667 10.667h55.253l51.989 259.99c6.955 34.773 37.76 60.011 73.216 60.011h267.54c5.888 0 10.667-4.779 10.667-10.667s-4.778-10.666-10.666-10.666z" fill="#fff"/>
    <path d="m509.4 89.005c-2.027-2.325-4.971-3.669-8.064-3.669h-405.33c-5.888 0-10.667 4.779-10.667 10.667s4.779 10.666 10.667 10.666h393.02l-17.237 120.94c-0.683 4.779-4.501 8.512-9.28 9.088l-335.77 40.704c-5.867 0.725-10.027 6.037-9.323 11.883 0.661 5.419 5.248 9.387 10.581 9.387 0.427 0 0.853-0.021 1.28-0.064l335.76-40.725c14.336-1.749 25.771-12.949 27.819-27.243l19.029-133.14c0.449-3.052-0.468-6.167-2.495-8.492z" fill="#fff"/>
</svg>
